<svg width="31" height="71" viewBox="0 0 31 71" fill="none" xmlns="http://www.w3.org/2000/svg">
<path fill-rule="evenodd" clip-rule="evenodd" d="M16.8648 40.4018C22.6767 39.6508 27.1667 34.6831 27.1667 28.6667V15.3333C27.1667 8.79796 21.8687 3.5 15.3333 3.5C8.79796 3.5 3.5 8.79796 3.5 15.3333V28.6667C3.5 34.7046 8.02212 39.6863 13.8643 40.4097L13.5003 24.0333L13.8461 24.0256C13.9424 23.2901 14.5715 22.7222 15.3333 22.7222C16.1618 22.7222 16.8333 23.3938 16.8333 24.2222V33.1111C16.8333 33.3179 16.7915 33.5149 16.7158 33.6942L16.8648 40.4018ZM16.9318 43.4149C24.3723 42.6177 30.1667 36.3188 30.1667 28.6667V15.3333C30.1667 7.14111 23.5256 0.5 15.3333 0.5C7.14111 0.5 0.5 7.14111 0.5 15.3333V28.6667C0.5 36.3861 6.39671 42.7283 13.9315 43.4346L14.4199 65.4129L7.28115 58.5845C6.68249 58.0119 5.73298 58.033 5.16035 58.6317C4.58772 59.2303 4.60882 60.1798 5.20748 60.7525L14.9631 70.084C15.5618 70.6566 16.5113 70.6355 17.0839 70.0368L26.4154 60.2812C26.9881 59.6825 26.967 58.733 26.3683 58.1604C25.7697 57.5877 24.8201 57.6088 24.2475 58.2075L17.4192 65.3462L16.9318 43.4149Z" fill="white" fill-opacity="0.5"/>
</svg>
